<svg xmlns="http://www.w3.org/2000/svg" width="1050" height="620" viewBox="0 0 1050 620"><style>text{font-family:ui-sans-serif,system-ui,-apple-system,sans-serif;fill:#e2e8f0}.title{font-size:25px;font-weight:700}.axis{stroke:#94a3b8;stroke-width:1.5}.grid{stroke:#334155;stroke-width:1}.axislabel{font-size:14px;font-weight:600}.tick{font-size:11px}.annotation,.legend,.label{font-size:11px}.note{font-size:12px;fill:#94a3b8}.decision{font-size:16px;font-weight:650}.evidence{font-size:12px;fill:#94a3b8}.status{font-size:14px;font-weight:750}.value{font-size:12px}.scenario{font-size:13px;font-weight:600}</style><rect width="100%" height="100%" fill="#0f172a"/><text x="45" y="52" class="title">Phase 6 directional discrimination</text><rect x="145" y="455.00" width="65" height="0.00" fill="#8b5cf6" rx="5"/><text x="177.5" y="447.00" text-anchor="middle" class="value">0.0%</text><text x="177.5" y="485" text-anchor="middle" class="label">volatility</text><rect x="235" y="244.61" width="65" height="210.39" fill="#22c55e" rx="5"/><text x="267.5" y="236.61" text-anchor="middle" class="value">63.8%</text><text x="267.5" y="485" text-anchor="middle" class="label">ThetaShield</text><text x="222" y="530" text-anchor="middle" class="scenario">persistent buying</text><rect x="445" y="455.00" width="65" height="0.00" fill="#8b5cf6" rx="5"/><text x="477.5" y="447.00" text-anchor="middle" class="value">0.0%</text><text x="477.5" y="485" text-anchor="middle" class="label">volatility</text><rect x="535" y="237.07" width="65" height="217.93" fill="#22c55e" rx="5"/><text x="567.5" y="229.07" text-anchor="middle" class="value">66.0%</text><text x="567.5" y="485" text-anchor="middle" class="label">ThetaShield</text><text x="522" y="530" text-anchor="middle" class="scenario">persistent selling</text><rect x="745" y="455.00" width="65" height="0.00" fill="#8b5cf6" rx="5"/><text x="777.5" y="447.00" text-anchor="middle" class="value">0.0%</text><text x="777.5" y="485" text-anchor="middle" class="label">volatility</text><rect x="835" y="444.47" width="65" height="10.53" fill="#22c55e" rx="5"/><text x="867.5" y="436.47" text-anchor="middle" class="value">3.2%</text><text x="867.5" y="485" text-anchor="middle" class="label">ThetaShield</text><text x="822" y="530" text-anchor="middle" class="scenario">alternating toxicity</text><text x="525" y="580" text-anchor="middle" class="note">Mean ThetaShield fee correlation with volatility-only: 0.253</text></svg>
